# xmcd
#
# Track frame offsets:
#	150
#	18266
#	35460
#	49208
#	66314
#	84596
#	100307
#	117701
#	134126
#	147980
#	163503
#	180738
#
# Disc length: 2616 seconds
# Revision: 2
# Processed by: cddbd v1.5.2PL0 Copyright (c) Steve Scherf et al.
# Submitted via: dBpowerAMP V12.0
#
DISCID=b10a360c
DTITLE=Rucker, Darius - Learn To Live
DYEAR=2008
DGENRE=Country Modern
TTITLE0=Forever Road
TTITLE1=All I Want
TTITLE2=Don't Think I Don't Think About It
TTITLE3=Learn To Live
TTITLE4=If I Had Wings
TTITLE5=History In The Making
TTITLE6=Alright
TTITLE7=It Won't Be Like This For Long
TTITLE8=Drinkin' And Dialin'
TTITLE9=I Hope They Get To Me In Time
TTITLE10=While I Still Got The Time
TTITLE11=Be Wary Of A Woman
EXTD=
EXTT0=
EXTT1=
EXTT2=
EXTT3=
EXTT4=
EXTT5=
EXTT6=
EXTT7=
EXTT8=
EXTT9=
EXTT10=
EXTT11=
PLAYORDER=
